<svg width="50" height="52" viewBox="0 0 50 52" fill="none" xmlns="http://www.w3.org/2000/svg">
<mask id="path-1-inside-1_199_3016" fill="white">
<path d="M0.736816 29.0986C0.736816 16.6722 10.8104 6.59863 23.2368 6.59863C35.6632 6.59863 45.7368 16.6722 45.7368 29.0986C45.7368 41.525 35.6632 51.5986 23.2368 51.5986C10.8104 51.5986 0.736816 41.525 0.736816 29.0986Z"/>
</mask>
<path d="M23.2368 50.5986C11.3627 50.5986 1.73682 40.9728 1.73682 29.0986H-0.263184C-0.263184 42.0773 10.2581 52.5986 23.2368 52.5986V50.5986ZM44.7368 29.0986C44.7368 40.9728 35.1109 50.5986 23.2368 50.5986V52.5986C36.2155 52.5986 46.7368 42.0773 46.7368 29.0986H44.7368ZM23.2368 7.59863C35.1109 7.59863 44.7368 17.2245 44.7368 29.0986H46.7368C46.7368 16.1199 36.2155 5.59863 23.2368 5.59863V7.59863ZM23.2368 5.59863C10.2581 5.59863 -0.263184 16.1199 -0.263184 29.0986H1.73682C1.73682 17.2245 11.3627 7.59863 23.2368 7.59863V5.59863Z" fill="black" fill-opacity="0.15" mask="url(#path-1-inside-1_199_3016)"/>
<g clip-path="url(#clip0_199_3016)">
<g clip-path="url(#clip1_199_3016)">
<g clip-path="url(#clip2_199_3016)">
<path d="M19.1472 32.4679H19.1482C19.1491 32.4679 19.15 32.4678 19.1509 32.4678H31.3677C31.6684 32.4678 31.9329 32.2682 32.0155 31.9791L34.7108 22.5455C34.7689 22.3421 34.7282 22.1235 34.601 21.9546C34.4736 21.7858 34.2744 21.6865 34.063 21.6865H17.5932L17.1115 19.5189C17.0429 19.2106 16.7695 18.9912 16.4536 18.9912H12.4106C12.0385 18.9912 11.7368 19.2929 11.7368 19.665C11.7368 20.0372 12.0385 20.3389 12.4106 20.3389H15.9131C15.9984 20.723 18.2182 30.7121 18.3459 31.2868C17.6298 31.5981 17.1274 32.3121 17.1274 33.1416C17.1274 34.2562 18.0343 35.1631 19.1489 35.1631H31.3677C31.7398 35.1631 32.0415 34.8614 32.0415 34.4892C32.0415 34.1171 31.7398 33.8154 31.3677 33.8154H19.1489C18.7774 33.8154 18.4751 33.5131 18.4751 33.1416C18.4751 32.7706 18.7764 32.4688 19.1472 32.4679ZM33.1696 23.0342L30.8593 31.1201H19.6894L17.8925 23.0342H33.1696Z" fill="black"/>
<path d="M18.4751 37.1846C18.4751 38.2992 19.382 39.2061 20.4966 39.2061C21.6112 39.2061 22.5181 38.2992 22.5181 37.1846C22.5181 36.0699 21.6112 35.1631 20.4966 35.1631C19.382 35.1631 18.4751 36.0699 18.4751 37.1846ZM20.4966 36.5107C20.8681 36.5107 21.1704 36.8131 21.1704 37.1846C21.1704 37.5561 20.8681 37.8584 20.4966 37.8584C20.1251 37.8584 19.8228 37.5561 19.8228 37.1846C19.8228 36.8131 20.1251 36.5107 20.4966 36.5107Z" fill="black"/>
<path d="M27.9985 37.1846C27.9985 38.2992 28.9054 39.2061 30.02 39.2061C31.1346 39.2061 32.0415 38.2992 32.0415 37.1846C32.0415 36.0699 31.1346 35.1631 30.02 35.1631C28.9054 35.1631 27.9985 36.0699 27.9985 37.1846ZM30.02 36.5107C30.3915 36.5107 30.6938 36.8131 30.6938 37.1846C30.6938 37.5561 30.3915 37.8584 30.02 37.8584C29.6485 37.8584 29.3462 37.5561 29.3462 37.1846C29.3462 36.8131 29.6485 36.5107 30.02 36.5107Z" fill="black"/>
</g>
</g>
</g>
<rect x="29.5967" y="0.598633" width="20" height="18" rx="9" fill="#002F6C"/>
<path d="M39.5943 13.7526C38.6849 13.7526 37.9553 13.5033 37.4053 13.0046C36.8553 12.4986 36.5803 11.736 36.5803 10.7166V8.78063C36.5803 7.79063 36.8553 7.03897 37.4053 6.52563C37.9553 6.00497 38.6849 5.74463 39.5943 5.74463C40.5109 5.74463 41.2406 6.00497 41.7833 6.52563C42.3333 7.03897 42.6083 7.79063 42.6083 8.78063V10.7166C42.6083 11.736 42.3333 12.4986 41.7833 13.0046C41.2406 13.5033 40.5109 13.7526 39.5943 13.7526ZM39.5943 12.4986C40.1443 12.4986 40.5476 12.3483 40.8043 12.0476C41.0683 11.747 41.2003 11.318 41.2003 10.7606V8.71463C41.2003 8.14997 41.0536 7.72463 40.7603 7.43863C40.4743 7.1453 40.0856 6.99863 39.5943 6.99863C39.0883 6.99863 38.6923 7.14897 38.4063 7.44963C38.1276 7.7503 37.9883 8.17197 37.9883 8.71463V10.7606C37.9883 11.34 38.1203 11.7763 38.3843 12.0696C38.6556 12.3556 39.0589 12.4986 39.5943 12.4986Z" fill="black"/>
<defs>
<clipPath id="clip0_199_3016">
<rect width="23" height="23" fill="white" transform="translate(11.7368 17.5986)"/>
</clipPath>
<clipPath id="clip1_199_3016">
<rect width="23" height="23" fill="white" transform="translate(11.7368 17.5986)"/>
</clipPath>
<clipPath id="clip2_199_3016">
<rect width="23" height="23" fill="white" transform="translate(11.7368 17.5986)"/>
</clipPath>
</defs>
</svg>
