<svg width="19" height="19" viewBox="0 0 19 19" fill="none" xmlns="http://www.w3.org/2000/svg">
<g clip-path="url(#clip0_199_3339)">
<g clip-path="url(#clip1_199_3339)">
<path d="M13.6033 0.518555H6.06075C3.17762 0.518555 0.832031 2.86414 0.832031 5.74727V13.2898C0.832031 16.173 3.17762 18.5186 6.06075 18.5186H13.6033C16.4864 18.5186 18.832 16.173 18.832 13.2899V5.74727C18.832 2.86414 16.4864 0.518555 13.6033 0.518555ZM17.4258 13.2898C17.4258 15.3976 15.711 17.1123 13.6033 17.1123H6.06075C3.95303 17.1123 2.23828 15.3976 2.23828 13.2899V5.74727C2.23828 3.63955 3.95303 1.9248 6.06075 1.9248H13.6033C15.711 1.9248 17.4258 3.63955 17.4258 5.74727V13.2898Z" fill="white"/>
<path d="M9.83203 4.66699C7.15685 4.66699 4.98047 6.84337 4.98047 9.51855C4.98047 12.1937 7.15685 14.3701 9.83203 14.3701C12.5072 14.3701 14.6836 12.1937 14.6836 9.51855C14.6836 6.84337 12.5072 4.66699 9.83203 4.66699ZM9.83203 12.9639C7.93229 12.9639 6.38672 11.4183 6.38672 9.51855C6.38672 7.61882 7.93229 6.07324 9.83203 6.07324C11.7318 6.07324 13.2773 7.61882 13.2773 9.51855C13.2773 11.4183 11.7318 12.9639 9.83203 12.9639Z" fill="white"/>
<path d="M14.7539 5.2998C15.1422 5.2998 15.457 4.985 15.457 4.59668C15.457 4.20835 15.1422 3.89355 14.7539 3.89355C14.3656 3.89355 14.0508 4.20835 14.0508 4.59668C14.0508 4.985 14.3656 5.2998 14.7539 5.2998Z" fill="white"/>
</g>
</g>
<defs>
<clipPath id="clip0_199_3339">
<rect width="18" height="18" fill="white" transform="translate(0.832031 0.518555)"/>
</clipPath>
<clipPath id="clip1_199_3339">
<rect width="18" height="18" fill="white" transform="translate(0.832031 0.518555)"/>
</clipPath>
</defs>
</svg>
