<svg width="19" height="19" viewBox="0 0 19 19" fill="none" xmlns="http://www.w3.org/2000/svg">
<g clip-path="url(#clip0_199_3309)">
<path d="M17.0472 16.7186V11.4446C17.0472 8.85256 16.4892 6.87256 13.4652 6.87256C12.0072 6.87256 11.0352 7.66456 10.6392 8.42056H10.6032V7.10656H7.74121V16.7186H10.7292V11.9486C10.7292 10.6886 10.9632 9.48256 12.5112 9.48256C14.0412 9.48256 14.0592 10.9046 14.0592 12.0206V16.7006H17.0472V16.7186Z" fill="white"/>
<path d="M2.88086 7.10645H5.86886V16.7184H2.88086V7.10645Z" fill="white"/>
<path d="M4.37497 2.31836C3.42097 2.31836 2.64697 3.09236 2.64697 4.04636C2.64697 5.00036 3.42097 5.79236 4.37497 5.79236C5.32897 5.79236 6.10297 5.00036 6.10297 4.04636C6.10297 3.09236 5.32897 2.31836 4.37497 2.31836Z" fill="white"/>
</g>
<defs>
<clipPath id="clip0_199_3309">
<rect width="18" height="18" fill="white" transform="translate(0.847168 0.518555)"/>
</clipPath>
</defs>
</svg>
