<svg width="15" height="14" viewBox="0 0 15 14" fill="none" xmlns="http://www.w3.org/2000/svg">
<path d="M14.4728 5.71035L8.98516 0.513791C8.31297 -0.122303 7.26063 -0.122303 6.58891 0.513791L1.11438 5.69863C0.782503 5.98832 0.668596 6.44254 0.823753 6.85645C0.978909 7.26941 1.36328 7.53613 1.80344 7.53613H2.16203V12.6924C2.16203 12.9511 2.37203 13.1611 2.63078 13.1611H12.9433C13.202 13.1611 13.412 12.9511 13.412 12.6924V7.53613H13.7702C14.2103 7.53613 14.5952 7.26895 14.7498 6.85551C14.905 6.44207 14.7906 5.98738 14.4728 5.71035ZM6.38078 12.2236V9.87988C6.38078 9.10457 7.01172 8.47363 7.78703 8.47363C8.56235 8.47363 9.19328 9.10457 9.19328 9.87988V12.2236H6.38078ZM13.7702 6.59863H12.9433C12.6845 6.59863 12.4745 6.80863 12.4745 7.06738V12.2236H10.1308V9.87988C10.1308 8.58754 9.07938 7.53613 7.78703 7.53613C6.49469 7.53613 5.44328 8.58754 5.44328 9.87988V12.2236H3.09953V7.06738C3.09953 6.80863 2.88953 6.59863 2.63078 6.59863H1.80344C1.71016 6.59863 1.64266 6.48192 1.74485 6.39192L7.23344 1.19442C7.54375 0.900509 8.03032 0.900509 8.34063 1.19442L13.8423 6.4041C13.9192 6.47067 13.8719 6.59863 13.7702 6.59863Z" fill="black"/>
</svg>
