<svg width="48" height="47" viewBox="0 0 48 47" fill="none" xmlns="http://www.w3.org/2000/svg">
<path fill-rule="evenodd" clip-rule="evenodd" d="M19.1795 27.7369C17.4983 27.1916 15.8934 27.9248 14.453 28.7586L8.56573 32.1672L12.9256 39.8708L14.0121 39.2436C14.1977 39.137 14.4088 39.1154 14.6005 39.1665L26.19 42.2695C27.6508 42.661 29.0325 42.484 30.3241 41.689C35.6534 38.4164 40.9763 35.133 46.3017 31.8539C47.1116 31.3552 47.2166 29.9929 46.7366 29.2197C45.678 27.514 42.7459 28.934 41.5277 29.6435L32.7235 34.7715C32.0262 35.1776 31.3089 35.4357 30.5645 35.5607C29.8294 35.6841 29.0725 35.6755 28.286 35.5498L27.2473 35.3813C27.2081 35.375 27.1692 35.3693 27.1307 35.3599C25.1526 34.9536 23.2368 34.3351 21.2894 33.8133C20.8731 33.7021 20.6258 33.2744 20.737 32.8582C20.8482 32.4418 21.276 32.1946 21.6922 32.3058C23.5963 32.816 25.4836 33.4291 27.4139 33.8283C28.3944 33.9482 29.2034 33.6389 29.4756 32.6233C29.7225 31.7019 29.1415 30.8335 28.2712 30.5321C25.6271 30.0481 23.0608 29.1204 21.043 28.3909C20.3409 28.1372 19.7064 27.9078 19.1795 27.7369ZM29.5392 13.5167C29.9993 13.0566 30.7521 13.0566 31.2121 13.5167L32.4107 14.7153L35.6538 11.4722C36.1139 11.0122 36.8667 11.0122 37.3268 11.4722C37.7868 11.9323 37.7868 12.6851 37.3268 13.1452L33.2703 17.2016C32.6838 17.7881 31.8992 17.5498 31.3791 17.0296L29.5391 15.1897C29.079 14.7295 29.0791 13.9767 29.5392 13.5167ZM43.9865 11.9374C43.7213 10.8224 43.2793 9.75728 42.6783 8.78149L43.5886 6.73188L41.1723 4.31558L39.1221 5.22612C38.1464 4.62534 37.0817 4.18345 35.967 3.91811L35.1617 1.82593H31.7446L30.9393 3.91811C29.8246 4.18345 28.76 4.62534 27.7843 5.22612L25.7341 4.31558L23.3178 6.73198L24.2282 8.78198C23.6273 9.75767 23.1855 10.8225 22.9202 11.9373L20.8282 12.7425V16.1597L22.9199 16.9648C23.1853 18.0797 23.6272 19.1449 24.2281 20.1207L23.3179 22.1702L25.7342 24.5865L27.7844 23.6759C28.7601 24.2767 29.8246 24.7186 30.9394 24.9838L31.7446 27.076H35.1618L35.9669 24.9843C37.0818 24.7191 38.1469 24.2771 39.1228 23.6761L41.1723 24.5865L43.5886 22.1701L42.678 20.1199C43.2787 19.1442 43.7207 18.0796 43.9859 16.9649L46.078 16.1596V12.7424L43.9865 11.9374ZM33.4329 21.0413C29.7296 21.0413 26.7274 18.0391 26.7274 14.3358C26.7274 10.6324 29.7296 7.63022 33.4329 7.63022C37.1362 7.63022 40.1385 10.6324 40.1385 14.3358C40.1385 18.0391 37.1362 21.0413 33.4329 21.0413ZM13.5994 14.2396L14.673 17.067C14.7052 17.152 14.7804 17.2066 14.8711 17.211L17.8919 17.3583C18.0974 17.3682 18.1814 17.6271 18.0211 17.7559L15.6638 19.6506C15.5929 19.7076 15.5642 19.7958 15.5881 19.8836L16.3815 22.8021C16.4355 23.0005 16.2154 23.1605 16.0433 23.0479L13.5128 21.3915C13.4367 21.3417 13.3439 21.3417 13.2679 21.3915L10.7375 23.0479C10.5654 23.1605 10.3453 23.0006 10.3992 22.8021L11.1927 19.8836C11.2165 19.7959 11.1879 19.7076 11.117 19.6506L8.75967 17.7559C8.59932 17.627 8.6834 17.3682 8.88887 17.3583L11.9097 17.211C12.0005 17.2066 12.0756 17.152 12.1079 17.067L13.1813 14.2396C13.2538 14.0484 13.5269 14.0484 13.5994 14.2396ZM13.5994 0.682471L14.6729 3.50991C14.7052 3.59487 14.7803 3.64946 14.8711 3.65386L17.8918 3.80112C18.0973 3.81108 18.1814 4.06997 18.021 4.19878L15.6637 6.09351C15.5929 6.15044 15.5642 6.23872 15.588 6.32651L16.3814 9.24497C16.4355 9.44341 16.2153 9.60337 16.0432 9.49077L13.5128 7.83433C13.4367 7.78452 13.3439 7.78452 13.2679 7.83433L10.7375 9.49077C10.5654 9.60347 10.3452 9.44351 10.3992 9.24497L11.1927 6.32651C11.2165 6.23882 11.1878 6.15054 11.117 6.09351L8.75967 4.19878C8.59932 4.06997 8.6835 3.81108 8.88887 3.80112L11.9097 3.65386C12.0005 3.64946 12.0756 3.59487 12.1078 3.50991L13.1813 0.682471C13.2538 0.49126 13.5268 0.49126 13.5994 0.682471ZM13.0857 43.3263L5.82334 30.4941C5.47217 29.8736 4.67725 29.6533 4.05674 30.0044L1.58653 31.4025C0.966019 31.7537 0.745706 32.5486 1.09688 33.1691L8.35938 46.0013C8.71055 46.6218 9.50547 46.8421 10.126 46.491L12.5962 45.0929C13.2165 44.7417 13.4369 43.9467 13.0857 43.3263ZM4.41319 34.1629C3.93125 34.2333 3.4834 33.8999 3.41289 33.4178C3.34248 32.9359 3.67598 32.488 4.15801 32.4175C4.63994 32.347 5.0878 32.6806 5.1583 33.1626C5.22871 33.6447 4.89512 34.0925 4.41319 34.1629Z" fill="black"/>
</svg>
