<svg width="71" height="16" viewBox="0 0 71 16" fill="none" xmlns="http://www.w3.org/2000/svg">
<g clip-path="url(#clip0_199_3252)">
<g clip-path="url(#clip1_199_3252)">
<g clip-path="url(#clip2_199_3252)">
<path d="M9.03125 6.4054L7.38197 1.08154L5.73283 6.4054H0.396973L4.71411 9.69554L3.06497 15.0201L7.38197 11.7285L11.6991 15.0201L10.05 9.69554L14.3671 6.4054H9.03125Z" fill="white"/>
<path d="M23.0386 6.4054L21.3895 1.08154L19.7402 6.4054H14.4043L18.7215 9.69554L17.0723 15.0201L21.3895 11.7285L25.7066 15.0201L24.0573 9.69554L28.3745 6.4054H23.0386Z" fill="white"/>
<path d="M37.0464 6.4054L35.3972 1.08154L33.7481 6.4054H28.4121L32.7292 9.69554L31.0801 15.0201L35.3972 11.7285L39.7144 15.0201L38.0652 9.69554L42.3822 6.4054H37.0464Z" fill="white"/>
<path d="M51.0535 6.4054L49.4044 1.08154L47.7552 6.4054H42.4194L46.7365 9.69554L45.0872 15.0201L49.4044 11.7285L53.7215 15.0201L52.0724 9.69554L56.3895 6.4054H51.0535Z" fill="white"/>
<path d="M63.4119 1.08154L61.7626 6.4054H56.4268L60.7439 9.69554L59.0948 15.0201L63.4119 11.7285L67.7289 15.0201L66.0798 9.69554L70.3969 6.4054H65.0611L63.4119 1.08154Z" fill="white"/>
</g>
</g>
</g>
<defs>
<clipPath id="clip0_199_3252">
<rect width="70" height="15" fill="white" transform="translate(0.396973 0.658691)"/>
</clipPath>
<clipPath id="clip1_199_3252">
<rect width="70" height="15" fill="white" transform="translate(0.396973 0.658691)"/>
</clipPath>
<clipPath id="clip2_199_3252">
<rect width="70" height="15" fill="white" transform="translate(0.396973 0.658691)"/>
</clipPath>
</defs>
</svg>
